<svg width="130" height="39" viewBox="0 0 130 39" fill="none" xmlns="http://www.w3.org/2000/svg">
<path d="M12.0559 34.8357L0.360352 34.8847V34.7029C0.668573 34.6522 0.971194 34.572 1.26401 34.4632C1.53089 34.3695 1.77076 34.2119 1.96269 34.0042C2.03344 33.908 2.08536 33.7992 2.1157 33.6837C2.15958 33.5255 2.19238 33.3644 2.21386 33.2016C2.23696 33.0168 2.25717 32.8262 2.27449 32.6242C2.29181 32.4221 2.30048 32.2257 2.30048 32.0323C2.30048 31.8389 2.30048 31.631 2.30048 31.3394C2.30048 31.0478 2.30048 30.7273 2.31491 30.3838C2.32935 30.0402 2.31491 29.6822 2.31491 29.3155C2.31491 28.9489 2.31491 28.588 2.31491 28.2589L2.30048 24.7251C2.30048 24.5057 2.30048 24.2949 2.30048 24.087C2.30171 23.8836 2.29207 23.6803 2.2716 23.4779C2.25737 23.3084 2.22938 23.1404 2.18788 22.9755C2.1596 22.8492 2.10337 22.7308 2.02331 22.629C1.83824 22.4161 1.60167 22.254 1.33619 22.1585C1.04597 22.0501 0.743378 21.9783 0.435414 21.9448V21.7629L6.24712 21.7369V21.9188C6.08833 21.9448 5.90067 21.9823 5.66971 22.0314C5.45314 22.0806 5.24498 22.1614 5.05187 22.2711C4.85172 22.3866 4.68083 22.5466 4.5524 22.7388C4.40259 22.9763 4.32441 23.2519 4.32721 23.5327C4.32721 23.9571 4.30989 24.3469 4.307 24.6875C4.30411 25.0282 4.307 25.3891 4.307 25.7269C4.307 26.0647 4.307 26.4198 4.307 26.7865C4.307 27.1531 4.307 27.5573 4.307 28.0048C4.307 28.4523 4.307 28.7959 4.307 29.1365C4.307 29.4772 4.307 29.7861 4.307 30.1008C4.307 30.4155 4.307 30.7418 4.307 31.0738C4.307 31.4058 4.307 31.784 4.32144 32.1969C4.33587 32.6097 4.35319 32.9562 4.37052 33.3084C4.37068 33.581 4.43706 33.8495 4.56395 34.0908C4.64598 34.1708 4.74452 34.2319 4.85266 34.2698C5.02373 34.3375 5.20056 34.3897 5.381 34.4257C5.58887 34.4661 5.81117 34.5008 6.05658 34.5296C6.29891 34.559 6.54291 34.5725 6.78701 34.57C6.88228 34.57 7.03819 34.57 7.24894 34.57C7.4597 34.57 7.69644 34.5498 7.95051 34.5325C8.20457 34.5152 8.46729 34.4834 8.73579 34.443C8.97483 34.4112 9.21124 34.362 9.44313 34.2958C9.87295 34.1854 10.2816 34.0049 10.6528 33.7617C10.9642 33.551 11.2425 33.2951 11.4785 33.0024C11.7083 32.7162 11.9022 32.4031 12.0559 32.0698C12.2118 31.7349 12.362 31.3856 12.5063 31.0218L12.6882 31.0767L12.0559 34.8357Z" fill="white"/>
<path d="M21.1268 33.6836C21.0311 33.9002 20.9025 34.1008 20.7458 34.2783C20.5918 34.451 20.4029 34.5888 20.1914 34.6825C19.9689 34.7741 19.7305 34.8212 19.4899 34.8211C19.0921 34.8284 18.7035 34.7013 18.387 34.4602C18.0636 34.2206 17.902 33.7933 17.8991 33.187L17.8615 33.1697C17.7461 33.356 17.6157 33.5327 17.4718 33.698C17.3 33.9024 17.1064 34.0873 16.8944 34.2495C16.6672 34.4222 16.4163 34.5612 16.1495 34.6623C15.8602 34.7688 15.5541 34.8226 15.2458 34.8211C15.0461 34.8202 14.8472 34.794 14.654 34.7432C14.4537 34.6866 14.2678 34.5882 14.1083 34.4545C13.9371 34.3072 13.7993 34.1251 13.7041 33.9203C13.5939 33.6674 13.5397 33.3936 13.5453 33.1177C13.5548 32.7506 13.6998 32.3999 13.9524 32.1332C14.2445 31.7972 14.5839 31.5054 14.96 31.2671C15.3584 31.013 15.7136 30.7936 16.0225 30.6089C16.3314 30.4241 16.5999 30.2682 16.8309 30.1411C17.0618 30.0141 17.2639 29.9015 17.44 29.8091C17.6161 29.7167 17.7634 29.6359 17.8846 29.5608V27.6842C17.8726 27.6245 17.8512 27.567 17.8211 27.5139C17.7677 27.4042 17.6931 27.3061 17.6017 27.2252C17.4751 27.1128 17.3294 27.0238 17.1715 26.9625C16.9452 26.8758 16.7035 26.8365 16.4613 26.847C16.2645 26.8472 16.0691 26.8813 15.8839 26.948C15.7064 27.0117 15.5384 27.0991 15.3844 27.2079C15.2566 27.2962 15.1411 27.401 15.0409 27.5197C14.9707 27.5908 14.9261 27.6832 14.9138 27.7824V28.6023C14.9108 28.6941 14.8852 28.7837 14.8394 28.8632C14.7936 28.9427 14.7289 29.0098 14.6511 29.0585C14.487 29.1895 14.2837 29.2617 14.0737 29.2635C13.9802 29.2646 13.8875 29.2468 13.8012 29.2111C13.7148 29.1754 13.6366 29.1225 13.5713 29.0556C13.5048 28.9942 13.4517 28.9196 13.4154 28.8366C13.3792 28.7536 13.3605 28.664 13.3606 28.5735C13.3571 28.4322 13.3942 28.293 13.4674 28.1722C13.5405 28.0492 13.632 27.9382 13.7388 27.843C13.8484 27.7459 13.9674 27.6598 14.0939 27.5861C14.2209 27.5139 14.3306 27.4446 14.4288 27.384C14.7435 27.1992 15.064 27.0231 15.3931 26.8499C15.7222 26.6766 16.0311 26.5323 16.3285 26.411C16.5961 26.2992 16.8698 26.2028 17.1484 26.1223C17.3452 26.0562 17.5503 26.0183 17.7576 26.0097C18.0726 26.0067 18.3823 26.0906 18.6526 26.2522C18.9089 26.3907 19.1187 26.6016 19.256 26.8585C19.3179 26.9985 19.3494 27.1501 19.3484 27.3031C19.3628 27.5197 19.3686 27.7275 19.3686 27.9354C19.3686 28.3714 19.3686 28.7669 19.3686 29.1162C19.3686 29.4656 19.3686 29.8091 19.3686 30.1383C19.3686 30.4674 19.3686 30.8023 19.3686 31.1487C19.3686 31.4952 19.3686 31.8763 19.3686 32.2891C19.3686 32.8348 19.4668 33.1957 19.6573 33.3718C19.7425 33.4558 19.8436 33.522 19.9546 33.5666C20.0656 33.6112 20.1844 33.6333 20.304 33.6316C20.524 33.6496 20.7432 33.5881 20.9219 33.4584C21.0568 33.34 21.1516 33.1827 21.1932 33.008H21.303C21.2914 33.241 21.2376 33.4699 21.1442 33.6836H21.1268ZM17.8846 29.8524C17.6236 30.0384 17.3506 30.2072 17.0676 30.3577C16.7395 30.5339 16.4206 30.7266 16.112 30.9351C15.8186 31.131 15.5501 31.3617 15.3123 31.6222C15.0967 31.852 14.9778 32.156 14.9802 32.471C14.9781 32.7912 15.0966 33.1005 15.3123 33.3372C15.4179 33.4624 15.551 33.5617 15.7012 33.6273C15.8514 33.6928 16.0147 33.723 16.1784 33.7154C16.4613 33.7192 16.7433 33.6823 17.0156 33.6057C17.2717 33.5224 17.5029 33.3765 17.6883 33.1813C17.7591 33.1167 17.8152 33.0377 17.8525 32.9494C17.8899 32.8612 17.9078 32.766 17.9048 32.6702L17.8846 29.8524Z" fill="white"/>
<path d="M34.6242 26.3561C34.4693 26.3689 34.3178 26.409 34.1767 26.4745C34.0171 26.5538 33.8725 26.6602 33.7494 26.7892C33.5907 26.9564 33.4652 27.1524 33.3799 27.3666C33.2355 27.7073 33.0652 28.1057 32.866 28.5619C32.6668 29.018 32.4618 29.4973 32.251 30.0054C32.0403 30.5135 31.8324 30.9986 31.6188 31.4923C31.4051 31.9859 31.2204 32.445 31.0414 32.8694C30.9316 33.1004 30.8421 33.2996 30.77 33.4612C30.6978 33.6229 30.6314 33.7731 30.5708 33.9001C30.5101 34.0271 30.4553 34.1541 30.4004 34.2754C30.3456 34.3967 30.2821 34.5295 30.2099 34.6767C30.1949 34.7081 30.1716 34.7349 30.1427 34.7542C30.1137 34.7735 30.0801 34.7846 30.0453 34.7864C30.0242 34.79 30.0027 34.7887 29.9822 34.7827C29.9616 34.7767 29.9428 34.7661 29.9269 34.7518C29.9074 34.7236 29.8928 34.6924 29.8836 34.6594C29.722 34.1888 29.5689 33.7355 29.4217 33.3053C29.2745 32.8752 29.1186 32.4392 28.9598 31.9686C28.801 31.498 28.6277 31.0014 28.443 30.4558C28.2582 29.9101 28.0446 29.301 27.7963 28.5821L26.0842 33.109C25.9429 33.3819 25.8166 33.6624 25.706 33.9492C25.6223 34.1801 25.5184 34.4313 25.4 34.6998C25.3811 34.7315 25.3545 34.7578 25.3227 34.7765C25.2909 34.7952 25.255 34.8055 25.2181 34.8066C25.1575 34.8066 25.1026 34.7662 25.0535 34.6796C24.5743 33.5248 24.1075 32.4036 23.6533 31.3161C23.1991 30.2287 22.7179 29.0738 22.2098 27.8516C22.1347 27.6813 22.0539 27.4965 21.9615 27.2973C21.8766 27.1124 21.7802 26.9331 21.6728 26.7603C21.5703 26.6784 21.4633 26.6023 21.3523 26.5322C21.0979 26.4176 20.8196 26.3661 20.541 26.3821V26.1829L24.6407 26.1627V26.3648L24.352 26.4023C24.235 26.4161 24.1193 26.4383 24.0055 26.4687C23.89 26.5005 23.7832 26.5322 23.6793 26.5698C23.5876 26.6001 23.5038 26.6504 23.4339 26.717C23.4599 26.8123 23.5551 27.0779 23.7226 27.5081C23.89 27.9382 24.095 28.4493 24.3404 29.044C24.5858 29.6387 24.8486 30.2681 25.1286 30.935C25.4087 31.602 25.6714 32.2169 25.9052 32.7741L26.2459 31.908C26.3787 31.5673 26.5346 31.192 26.679 30.7763C26.8233 30.3605 26.9937 29.9303 27.1553 29.48C27.317 29.0296 27.4758 28.5878 27.6346 28.149C27.548 27.9065 27.4556 27.6755 27.3459 27.4474C27.2362 27.2194 27.138 27.0028 27.0139 26.7834C26.9773 26.7476 26.9435 26.709 26.9128 26.6679C26.8743 26.6158 26.8251 26.5725 26.7685 26.5409C26.6783 26.49 26.581 26.453 26.4798 26.4312C26.3114 26.3966 26.1405 26.3764 25.9687 26.3706V26.1685L30.1233 26.1511V26.3301L29.7595 26.3792C29.6152 26.3965 29.4724 26.4245 29.3322 26.4629C29.2034 26.495 29.0805 26.5477 28.9684 26.6188C28.92 26.6498 28.8803 26.6925 28.8531 26.743C28.8258 26.7935 28.8118 26.8501 28.8125 26.9076C28.8319 27.0533 28.8667 27.1965 28.9165 27.3348C28.9829 27.5572 29.0724 27.8343 29.1821 28.1605C29.2918 28.4868 29.4217 28.8535 29.5632 29.2548C29.7046 29.6561 29.8519 30.0545 29.9933 30.4558C30.1348 30.8571 30.2821 31.2468 30.4293 31.6279C30.5765 32.009 30.6949 32.3468 30.8046 32.6355C30.8768 32.4796 30.9807 32.2458 31.1135 31.934C31.2463 31.6222 31.3849 31.2786 31.5351 30.8946C31.6852 30.5106 31.8411 30.1151 32.0056 29.708C32.1702 29.3009 32.3117 28.917 32.4358 28.5532C32.56 28.1894 32.6668 27.8747 32.7505 27.5947C32.8172 27.4084 32.8599 27.2143 32.8775 27.0173C32.8866 26.8759 32.8435 26.7362 32.7563 26.6246C32.6781 26.5352 32.5789 26.4667 32.4676 26.4254C32.3469 26.3844 32.222 26.3572 32.0951 26.3446L31.7285 26.3128V26.1107H35.0631V26.3301L34.6185 26.3706" fill="white"/>
<path d="M52.5355 28.7467C52.3207 28.8057 52.1336 28.9386 52.0072 29.122C51.9097 29.3141 51.8611 29.5273 51.8657 29.7427C51.8657 30.0314 51.8484 30.2999 51.8513 30.58V33.2419C51.6528 33.381 51.4433 33.5036 51.2247 33.6085C50.829 33.8059 50.4222 33.9804 50.0064 34.1311C49.4869 34.3207 48.9543 34.4722 48.4127 34.5844C47.8376 34.7076 47.2513 34.7715 46.6632 34.7749C45.6141 34.7957 44.5684 34.6495 43.5653 34.3418C42.7103 34.0815 41.9221 33.6382 41.2556 33.0426C40.6225 32.4573 40.1291 31.737 39.8121 30.9351C39.4636 30.044 39.2891 29.0943 39.2982 28.1375C39.3019 27.7875 39.3309 27.4382 39.3848 27.0924C39.5268 26.1729 39.8476 25.2902 40.3289 24.494C41.0711 23.2853 42.1855 22.3502 43.5047 21.8292C44.4923 21.4539 45.5434 21.2735 46.5996 21.298C47.2482 21.2861 47.8961 21.3471 48.5311 21.4799C49.0124 21.5814 49.4854 21.7194 49.9458 21.8927C50.2521 22.0068 50.5485 22.1459 50.8321 22.3085C50.9408 22.3828 51.0569 22.4457 51.1786 22.4961C51.2017 22.4961 51.2681 22.4239 51.3778 22.2767L51.7762 21.7484H51.9407L51.9581 25.721H51.7387C51.6061 25.1801 51.4012 24.6596 51.1295 24.1735C50.8944 23.738 50.6032 23.3352 50.2634 22.9754C49.8396 22.5492 49.3311 22.2168 48.7707 21.9995C48.1212 21.7395 47.4262 21.6119 46.7267 21.6242C45.9698 21.6185 45.2242 21.8074 44.5614 22.1728C43.9202 22.5311 43.3638 23.0235 42.9301 23.6163C42.4694 24.2457 42.1208 24.9499 41.8995 25.6979C41.6561 26.4988 41.5363 27.3322 41.5443 28.1692C41.5395 29.048 41.66 29.9229 41.9023 30.7676C42.1079 31.4993 42.4509 32.1851 42.9128 32.7886C43.3439 33.336 43.8938 33.7783 44.5209 34.082C45.1997 34.3995 45.9428 34.5557 46.692 34.5382C47.2495 34.5397 47.8022 34.4348 48.3203 34.2292C48.8116 34.0379 49.2292 33.6951 49.5127 33.2505C49.6372 32.9868 49.7098 32.7016 49.7263 32.4104C49.7731 31.9992 49.7962 31.5857 49.7956 31.1718C49.7963 30.7857 49.7722 30.4 49.7235 30.017C49.6927 29.7045 49.561 29.4106 49.3481 29.1797C49.0594 28.865 48.5744 28.6803 47.87 28.6196V28.4377L53.2082 28.4146V28.5965C52.9793 28.6275 52.754 28.6807 52.5355 28.7553" fill="white"/>
<path d="M60.4555 27.4533C60.3904 27.536 60.3076 27.603 60.2132 27.6495C60.1187 27.6959 60.0151 27.7207 59.9099 27.7218C59.7491 27.7296 59.589 27.6958 59.4451 27.6236C59.3388 27.5612 59.2417 27.4844 59.1563 27.3956C59.0711 27.3133 58.9794 27.238 58.8821 27.1704C58.7537 27.097 58.6065 27.0633 58.459 27.0736C58.3115 27.0839 58.1704 27.1377 58.0535 27.2281C57.9044 27.3406 57.7722 27.4738 57.6608 27.6236C57.5346 27.7909 57.4263 27.9709 57.3375 28.1606C57.2393 28.3627 57.1556 28.5533 57.0834 28.7381L57.1065 33.9868C57.1269 34.0433 57.1587 34.095 57.2 34.1387C57.2412 34.1824 57.2909 34.2172 57.3461 34.2409C57.4754 34.3036 57.6138 34.3455 57.7561 34.365C57.9128 34.3901 58.071 34.4046 58.2296 34.4083C58.3729 34.4142 58.5156 34.4296 58.6569 34.4545V34.6364L54.5774 34.6537V34.4718C54.8232 34.4525 55.0646 34.396 55.2934 34.3044C55.38 34.2738 55.4547 34.2165 55.5066 34.1407C55.5585 34.065 55.5849 33.9747 55.5821 33.8829L55.5677 27.7218C55.5704 27.6485 55.5607 27.5753 55.5388 27.5053C55.503 27.4371 55.449 27.3802 55.3829 27.3407C55.2732 27.281 55.1462 27.206 55.0018 27.1155C54.862 27.0277 54.7152 26.9514 54.563 26.8874V26.7806L56.9477 25.8394H57.0574L57.0315 28.3714H57.0661C57.1267 28.227 57.2249 28.0134 57.3548 27.7334C57.4962 27.4297 57.6653 27.1398 57.86 26.8672C58.0664 26.582 58.318 26.3323 58.6049 26.1281C58.8962 25.9202 59.246 25.81 59.6039 25.8134C59.8873 25.8055 60.1637 25.9021 60.3805 26.0848C60.4829 26.1679 60.565 26.2732 60.6205 26.3928C60.6761 26.5123 60.7036 26.643 60.7009 26.7748C60.7131 27.0183 60.6291 27.2567 60.4671 27.4389" fill="white"/>
<path d="M69.33 31.8821C69.1116 32.415 68.7986 32.9041 68.4061 33.3256C68.0241 33.7349 67.5649 34.0646 67.055 34.2957C66.5427 34.5287 65.9866 34.6498 65.4238 34.6508C64.9196 34.6516 64.4186 34.5717 63.9398 34.4141C63.3958 34.2339 62.8949 33.9434 62.4682 33.561C62.0415 33.1785 61.6982 32.7121 61.4598 32.191C61.1727 31.5565 61.0297 30.8664 61.0412 30.1701C61.0386 29.6138 61.1455 29.0625 61.3559 28.5475C61.7727 27.4944 62.5856 26.6466 63.6202 26.1857C64.6547 25.7248 65.8287 25.6876 66.8904 26.0819C67.3907 26.2622 67.8529 26.5344 68.2531 26.8845C68.7105 27.2904 69.0733 27.7915 69.3162 28.3526C69.5592 28.9138 69.6762 29.5213 69.6591 30.1325C69.6652 30.7362 69.5503 31.335 69.3213 31.8936L69.33 31.8821ZM67.8229 28.7929C67.735 28.337 67.5834 27.8958 67.3726 27.4822C67.1738 27.0951 66.8918 26.7569 66.5468 26.4919C66.1822 26.226 65.7391 26.0898 65.2881 26.105C64.8987 26.104 64.5204 26.2342 64.2141 26.4746C63.8843 26.7383 63.6105 27.0652 63.4086 27.436C63.176 27.8525 63.0058 28.301 62.9033 28.7669C62.7897 29.2612 62.7335 29.7669 62.7359 30.274C62.7366 30.805 62.7878 31.3348 62.8889 31.8561C62.9762 32.3189 63.1381 32.7645 63.3682 33.1755C63.573 33.5405 63.8621 33.8513 64.2112 34.0821C64.5779 34.3151 65.0069 34.4309 65.4411 34.4141C65.879 34.4257 66.3051 34.2709 66.6335 33.981C66.9646 33.6795 67.23 33.3129 67.413 32.9041C67.6152 32.4585 67.7598 31.989 67.8431 31.5068C67.929 31.0498 67.9725 30.5859 67.9731 30.121C67.9686 29.6748 67.9212 29.23 67.8316 28.7929" fill="white"/>
<path d="M76.8478 34.5728H76.7208V32.7337L76.7034 32.7135C76.555 32.9431 76.3921 33.163 76.2155 33.3717C76.0203 33.6053 75.8006 33.8173 75.5602 34.004C75.3161 34.1957 75.0433 34.3477 74.7518 34.4544C74.4457 34.5667 74.1221 34.6234 73.7962 34.6218C73.0263 34.6218 72.4488 34.3938 72.0639 33.9376C71.6915 33.4786 71.5009 32.803 71.4865 31.9166L71.4692 27.4705C71.4692 27.4214 71.4692 27.3579 71.4692 27.2713C71.4694 27.1824 71.4626 27.0936 71.4489 27.0057C71.4489 26.9162 71.4287 26.8296 71.423 26.7516C71.4197 26.6913 71.404 26.6323 71.3768 26.5784C71.3339 26.4788 71.26 26.3958 71.166 26.3417C71.07 26.2932 70.9681 26.2573 70.8629 26.2348C70.7487 26.2112 70.6329 26.1967 70.5164 26.1915C70.3952 26.1915 70.2797 26.1915 70.1729 26.1656V25.9635H72.9791L73.0022 31.267C73.0022 32.0677 73.1263 32.6596 73.3746 33.0426C73.6229 33.4208 74.0791 33.62 74.7518 33.62C74.9794 33.6246 75.2061 33.5895 75.4216 33.5161C75.6016 33.4525 75.7732 33.3672 75.9326 33.262C76.0825 33.1554 76.2226 33.0356 76.3512 32.904C76.4774 32.7703 76.596 32.6295 76.7063 32.4825L76.6832 27.2857C76.6811 27.1292 76.6686 26.9729 76.6457 26.818C76.6323 26.6657 76.5817 26.519 76.4985 26.3907C76.3067 26.3194 76.107 26.2719 75.9037 26.2493C75.6554 26.2146 75.3985 26.1829 75.13 26.1598V25.9606H78.1903L78.2221 33.1581C78.219 33.2321 78.2277 33.3062 78.248 33.3775C78.2856 33.4446 78.3404 33.5004 78.4068 33.5392C78.5136 33.5998 78.6753 33.6806 78.889 33.7759C79.1026 33.8712 79.2816 33.9491 79.4289 34.0098V34.1195L76.8478 34.5728Z" fill="white"/>
<path d="M88.9249 31.5675C88.7029 32.1367 88.3612 32.6516 87.9231 33.0774C87.4649 33.5127 86.9226 33.8497 86.3294 34.0677C85.6489 34.3164 84.929 34.4396 84.2045 34.4314C83.988 34.4314 83.7714 34.4314 83.5607 34.417C83.3375 34.4031 83.1156 34.3732 82.8966 34.3275C82.8966 34.4978 82.8966 34.7461 82.8966 35.0753C82.8966 35.4044 82.9111 35.748 82.9168 36.1146C82.9226 36.4813 82.9168 36.8364 82.9313 37.1886C82.9457 37.5408 82.9313 37.8267 82.9313 38.0547C82.9438 38.1081 82.9686 38.1578 83.0036 38.1999C83.0387 38.242 83.0832 38.2753 83.1334 38.2973C83.2583 38.3563 83.3902 38.399 83.526 38.4243C83.6825 38.4537 83.8406 38.474 83.9995 38.4849C84.1641 38.4849 84.3055 38.508 84.4297 38.5224V38.7188L79.9287 38.739V38.5398C80.0529 38.5398 80.1972 38.5051 80.3675 38.4734C80.531 38.4445 80.6921 38.404 80.8497 38.3521C80.9858 38.3127 81.1145 38.2512 81.2308 38.1702C81.2773 38.1454 81.3162 38.1084 81.3432 38.0631C81.3701 38.0178 81.3842 37.966 81.3838 37.9133L81.3434 27.8085C81.3458 27.7342 81.336 27.6601 81.3145 27.589C81.2774 27.5225 81.2237 27.4668 81.1586 27.4274C81.0489 27.3667 80.8699 27.2772 80.6274 27.1646C80.3849 27.052 80.1914 26.9625 80.05 26.9019V26.7922L82.7407 25.724H82.8504V27.7652L82.8707 27.8027C83.0381 27.5717 83.2258 27.3321 83.4308 27.0896C83.6364 26.8435 83.8667 26.6191 84.1179 26.4198C84.3702 26.2187 84.6466 26.05 84.9407 25.9174C85.2454 25.7797 85.5764 25.7097 85.9108 25.7124C86.4312 25.6908 86.9484 25.8042 87.412 26.0416C87.8212 26.2633 88.1762 26.5729 88.4514 26.9481C88.7296 27.3331 88.9378 27.7641 89.0663 28.2213C89.2022 28.6905 89.2712 29.1764 89.2713 29.6649C89.2814 30.3128 89.1637 30.9564 88.9249 31.5588V31.5675ZM87.4669 28.9287C87.3655 28.5517 87.1941 28.1972 86.9617 27.8835C86.7311 27.5844 86.4347 27.3423 86.0955 27.1762C85.7184 26.9958 85.3037 26.9077 84.8858 26.9192C84.5955 26.9142 84.3076 26.9734 84.0428 27.0925C83.8136 27.197 83.6006 27.3341 83.4105 27.4995C83.2515 27.63 83.1167 27.7873 83.0121 27.9644C82.9423 28.0687 82.896 28.1869 82.8764 28.3108C82.8764 28.5533 82.8764 28.8132 82.8764 29.0846C82.8764 29.3559 82.8764 29.5985 82.8764 29.8063C82.8764 30.3029 82.8764 30.6927 82.8764 30.9612C82.8764 31.2297 82.8764 31.5184 82.8995 31.7984C82.9263 32.0644 82.9687 32.3285 83.0266 32.5895C83.0858 32.8547 83.1924 33.107 83.3413 33.3343C83.4918 33.5643 83.6985 33.7521 83.9418 33.88C84.2465 34.0297 84.5841 34.1002 84.9234 34.085C85.2814 34.0844 85.6322 33.9844 85.9367 33.7963C86.2764 33.5897 86.571 33.3167 86.8029 32.9937C87.0703 32.6218 87.2742 32.2081 87.4063 31.7695C87.5584 31.2671 87.6324 30.7442 87.6257 30.2192C87.6265 29.7826 87.5702 29.3478 87.4582 28.9258" fill="white"/>
<path d="M11.4469 17.1521V16.9212C11.5595 16.9116 11.6713 16.8952 11.7818 16.8721C11.9731 16.838 12.16 16.7828 12.339 16.7075C12.5245 16.6311 12.694 16.5204 12.8385 16.3813C12.9104 16.3126 12.9671 16.2295 13.0049 16.1375C13.0427 16.0455 13.0608 15.9466 13.0579 15.8472C13.0384 15.615 12.9939 15.3855 12.9251 15.1629C12.8385 14.8482 12.7172 14.4614 12.5613 14.0081C12.4054 13.5548 12.2264 13.0467 12.0215 12.4895C11.8165 11.9323 11.5999 11.3549 11.3661 10.7572L5.19926 10.7832C4.9683 11.3722 4.74599 11.9332 4.53235 12.4664C4.3187 13.0034 4.10506 13.5404 3.89141 14.0832C3.64008 14.6414 3.47835 15.2357 3.41216 15.8443C3.40663 16.0281 3.4741 16.2066 3.59982 16.3409C3.73607 16.4786 3.89788 16.5884 4.07619 16.6642C4.27695 16.7498 4.48731 16.8108 4.70269 16.8461C4.92788 16.8836 5.13864 16.9183 5.34073 16.9471V17.1781L0.403809 17.2012V16.9471C0.767074 16.911 1.11846 16.7978 1.4345 16.6151C1.61487 16.5214 1.78188 16.4039 1.93108 16.2658C2.13083 16.0269 2.30772 15.7698 2.45942 15.4978C2.79477 14.9209 3.09462 14.3241 3.3573 13.7107C3.67681 12.9832 4.03577 12.1546 4.43419 11.2249L5.66408 8.35517C6.0856 7.37356 6.5023 6.38329 6.91419 5.38435C7.32608 4.38542 7.71584 3.45193 8.08347 2.58388L7.85539 2.07864C8.12178 1.95963 8.37364 1.81045 8.60603 1.63402C8.81323 1.47155 9.00638 1.29191 9.18345 1.09703C9.33805 0.929832 9.47991 0.751296 9.60785 0.562915C9.72333 0.392577 9.81283 0.253996 9.87346 0.144287H10.0582L11.4412 3.78779C11.88 4.94263 12.2986 6.04934 12.697 7.10794C13.0954 8.16654 13.4804 9.19723 13.8519 10.2C14.2272 11.1932 14.6025 12.1767 14.9778 13.1506C15.1511 13.6299 15.3099 14.0167 15.4571 14.3401C15.6043 14.6635 15.7718 15.0157 15.9594 15.417C15.9912 15.4776 16.0634 15.5873 16.1702 15.7432C16.303 15.9193 16.4539 16.0809 16.6206 16.2254C16.8199 16.3994 17.0436 16.5434 17.2846 16.6527C17.578 16.7814 17.8939 16.8511 18.2143 16.8576V17.1464L11.4469 17.1521ZM8.34908 3.11799C8.2538 3.32008 8.121 3.63766 7.94489 4.07073C7.76877 4.50379 7.55224 5.02924 7.2924 5.64996C7.03256 6.27069 6.74385 6.96936 6.42628 7.75177L5.40425 10.2924L11.1784 10.2693C10.9099 9.57352 10.6414 8.88062 10.37 8.18483C10.0987 7.48904 9.83015 6.82212 9.57031 6.18408C9.31048 5.54603 9.08529 4.96573 8.87453 4.42584C8.66377 3.88595 8.48766 3.45578 8.34908 3.11799" fill="white"/>
<path d="M17.8647 17.1261V16.872C18.3436 16.8619 18.8188 16.7851 19.2765 16.6439C19.3822 16.6048 19.4728 16.5331 19.5351 16.4392C19.5973 16.3453 19.6281 16.234 19.623 16.1214L19.5652 2.78879C19.5693 2.69606 19.5576 2.60332 19.5306 2.51452C19.4859 2.42727 19.4166 2.35502 19.3314 2.30665L18.7049 1.94865C18.4804 1.81444 18.2469 1.69579 18.0062 1.59354V1.45496L21.3177 0.346313H21.4794L21.5487 16.2253C21.5382 16.3502 21.5764 16.4744 21.6555 16.5717C21.7401 16.6567 21.8491 16.7132 21.9673 16.7334C22.1432 16.7687 22.322 16.787 22.5014 16.7883C22.7179 16.7883 22.972 16.8143 23.2665 16.8431V17.0914L17.8647 17.1261Z" fill="white"/>
<path d="M23.8096 17.0915V16.8375C24.2885 16.8273 24.7636 16.7506 25.2214 16.6094C25.3271 16.5703 25.4176 16.4986 25.4799 16.4047C25.5422 16.3107 25.573 16.1994 25.5678 16.0868L25.5101 2.75712C25.515 2.65942 25.5023 2.56162 25.4725 2.46842C25.4282 2.38186 25.3601 2.30974 25.2762 2.26055L24.6468 1.90255C24.4233 1.76845 24.1908 1.6498 23.951 1.54744V1.40886L27.2596 0.303101H27.4213L27.4906 16.1821C27.482 16.3077 27.52 16.4321 27.5974 16.5314C27.6832 16.6159 27.7932 16.6714 27.9121 16.6902C28.087 16.7255 28.2649 16.7439 28.4433 16.7451C28.6628 16.7451 28.9168 16.7711 29.2113 16.7999V17.0915H23.8096Z" fill="white"/>
<path d="M44.9661 17.0078V16.7769C45.0796 16.7672 45.1924 16.7508 45.3039 16.7278C45.4938 16.692 45.6795 16.6368 45.8582 16.5632C46.0474 16.4854 46.2192 16.3706 46.3634 16.2254C46.4358 16.1571 46.4928 16.0741 46.5307 15.982C46.5685 15.8899 46.5863 15.7908 46.5829 15.6913C46.5648 15.4589 46.5203 15.2294 46.4501 15.0071C46.3634 14.6924 46.2422 14.3055 46.0863 13.8522C45.9304 13.399 45.7514 12.8937 45.5464 12.3365C45.3414 11.7793 45.1249 11.2019 44.891 10.6043L38.7242 10.6303C38.4952 11.2192 38.2738 11.7803 38.0602 12.3134C37.8436 12.8475 37.6329 13.3874 37.4192 13.9273C37.1677 14.4866 37.005 15.0818 36.9371 15.6913C36.9321 15.8759 36.9994 16.0552 37.1248 16.1908C37.2611 16.3298 37.4241 16.4398 37.604 16.5141C37.8032 16.602 38.0128 16.6641 38.2276 16.6989L38.8686 16.8V17.0309L33.9316 17.0511V16.8029C34.295 16.769 34.6466 16.6567 34.9623 16.4737C35.1432 16.3808 35.3104 16.2633 35.4589 16.1244C35.6588 15.8867 35.8357 15.6305 35.9872 15.3593C36.3197 14.7813 36.6185 14.1846 36.8822 13.5722C37.2037 12.8389 37.5617 12.0084 37.9562 11.0806L39.1833 8.21088C39.6048 7.22927 40.0215 6.239 40.4334 5.24007C40.8453 4.24113 41.236 3.30764 41.6055 2.43959L41.3717 1.93146C41.6385 1.81335 41.8905 1.66411 42.1223 1.48685C42.3296 1.32555 42.5228 1.14687 42.6997 0.952739C42.8629 0.785305 43.0143 0.606846 43.153 0.418628C43.2714 0.245403 43.358 0.106822 43.4215 0H43.6034C44.0884 1.27994 44.5503 2.49444 44.9892 3.64351C45.428 4.79257 45.8457 5.89928 46.2422 6.96366C46.6406 8.02803 47.0256 9.05776 47.397 10.0528C47.7752 11.0489 48.1477 12.0334 48.523 13.0063C48.6962 13.4827 48.855 13.8725 49.0022 14.1958L49.5046 15.2727C49.5682 15.3847 49.6386 15.4926 49.7154 15.5961C49.8406 15.7694 49.9849 15.9283 50.1455 16.0695C50.3427 16.2442 50.5657 16.3874 50.8067 16.4939C51.0994 16.6251 51.4156 16.6958 51.7363 16.7018V16.9905L44.9661 17.0078ZM41.8682 2.9737C41.7759 3.17291 41.6431 3.49049 41.4669 3.92355C41.2908 4.35662 41.0714 4.88495 40.8116 5.50568C40.5517 6.1264 40.2659 6.82508 39.9455 7.60459C39.625 8.3841 39.293 9.2358 38.9263 10.1481L44.7005 10.1221C44.4349 9.42923 44.1635 8.73633 43.8921 8.04054C43.6207 7.34475 43.3522 6.67784 43.0953 6.03979L42.3908 4.28155C42.18 3.74744 42.0068 3.31149 41.8654 2.9737" fill="white"/>
<path d="M60.8126 14.9349C60.5322 15.3489 60.1894 15.7171 59.7964 16.0262C59.395 16.3477 58.9407 16.5968 58.4539 16.7624C57.2435 17.1643 55.9278 17.1088 54.7555 16.6065C54.1325 16.3295 53.577 15.9208 53.1272 15.4084C52.6665 14.872 52.3066 14.2568 52.0647 13.5924C51.8047 12.8802 51.6727 12.1276 51.675 11.3694C51.6639 9.93158 52.1865 8.54078 53.1416 7.46602C53.607 6.95124 54.1679 6.5316 54.793 6.23035C55.4467 5.91575 56.1636 5.75478 56.8891 5.75976C57.3969 5.75732 57.903 5.81744 58.3961 5.93875C58.8611 6.04848 59.3075 6.2255 59.7213 6.4642C60.0926 6.68333 60.4133 6.97849 60.6625 7.33033C60.9051 7.67597 61.0333 8.0889 61.0291 8.51115C61.0247 8.82911 60.897 9.13294 60.673 9.35861C60.4489 9.58427 60.146 9.71414 59.8281 9.72084C59.5729 9.72418 59.3235 9.6441 59.1179 9.49276C58.9191 9.35355 58.7751 9.14934 58.7108 8.91534C58.7916 8.66063 58.8296 8.3943 58.8234 8.12717C58.8382 7.61047 58.6717 7.1049 58.3528 6.69806C58.1768 6.49702 57.956 6.34006 57.7084 6.23978C57.4607 6.1395 57.1929 6.0987 56.9266 6.12064C56.4591 6.12047 56.001 6.25151 55.6043 6.49885C55.1927 6.75559 54.8396 7.09591 54.5678 7.49778C54.2617 7.94708 54.0288 8.44212 53.8778 8.96442C53.7067 9.54348 53.623 10.1449 53.6295 10.7486C53.626 11.3968 53.7234 12.0416 53.9182 12.6599C54.0811 13.2021 54.3467 13.7079 54.7006 14.1496C55.0387 14.5544 55.4642 14.8771 55.945 15.0937C56.4618 15.3225 57.0227 15.4348 57.5877 15.4228C58.3732 15.4586 59.1547 15.2915 59.857 14.9378C60.4336 14.5977 60.9106 14.1118 61.2399 13.5289L61.4276 13.6213C61.2879 14.0879 61.0786 14.5308 60.8068 14.9349" fill="white"/>
<path d="M71.0592 14.8887C70.7796 15.3042 70.4367 15.6734 70.043 15.9829C69.6381 16.3056 69.1798 16.5547 68.6889 16.7191C68.1634 16.896 67.6122 16.9847 67.0577 16.9818C66.3466 16.9917 65.6418 16.8489 64.9905 16.5632C64.3664 16.2856 63.8106 15.8746 63.3622 15.3593C62.9005 14.8237 62.5405 14.2082 62.2998 13.5433C62.0413 12.8299 61.9123 12.0761 61.9187 11.3174C61.9123 10.5922 62.0425 9.87231 62.3027 9.19537C62.5508 8.54087 62.9179 7.93791 63.3853 7.41692C63.8507 6.90214 64.4116 6.4825 65.0367 6.18125C65.6855 5.87059 66.3961 5.7107 67.1154 5.71354C67.6232 5.7122 68.1292 5.7723 68.6225 5.89254C69.0896 6.00006 69.5388 6.1741 69.9563 6.40933C70.3283 6.62759 70.6492 6.92291 70.8975 7.27545C71.1401 7.62109 71.2683 8.03403 71.2642 8.45627C71.2652 8.67842 71.2047 8.8965 71.0894 9.08639C70.9741 9.27628 70.8085 9.43057 70.611 9.53218C70.4134 9.63379 70.1916 9.67876 69.9701 9.66212C69.7486 9.64548 69.536 9.56787 69.3558 9.43788C69.156 9.29916 69.0109 9.09489 68.9459 8.86046C69.0266 8.60575 69.0647 8.33943 69.0585 8.07229C69.0751 7.55897 68.9129 7.05581 68.5994 6.64896C68.3107 6.26786 67.8199 6.07154 67.1703 6.08597C66.7047 6.08351 66.2481 6.21369 65.8538 6.46129C65.4427 6.72094 65.089 7.06185 64.8144 7.46311C64.5083 7.91136 64.2754 8.40545 64.1244 8.92687C63.9532 9.5069 63.8695 10.1092 63.8761 10.714C63.8726 11.3622 63.97 12.007 64.1648 12.6252C64.3306 13.165 64.6003 13.6672 64.9588 14.1034C65.296 14.5098 65.7216 14.8337 66.2031 15.0504C66.7177 15.2766 67.2752 15.3889 67.8372 15.3795C68.6234 15.4126 69.4052 15.2458 70.1094 14.8945C70.6856 14.5529 71.1632 14.0674 71.4952 13.4856L71.6799 13.578C71.5409 14.0439 71.3316 14.4859 71.0592 14.8887" fill="white"/>
<path d="M72.1333 16.8895V16.6586L72.6876 16.6008C72.858 16.5788 73.0255 16.5382 73.1871 16.4796C73.3238 16.4307 73.4494 16.3551 73.5566 16.2573C73.6056 16.2135 73.6444 16.1596 73.6704 16.0992C73.6963 16.0389 73.7087 15.9736 73.7068 15.9079L73.6721 7.95689C73.6742 7.84791 73.6616 7.73915 73.6346 7.63354C73.6012 7.52834 73.5316 7.43834 73.4383 7.37947C73.2784 7.27217 73.1116 7.17572 72.9388 7.09076C72.7454 7.00127 72.5375 6.91754 72.321 6.83959V6.70101L75.4477 5.66743H75.5863L75.6296 16.0292C75.6389 16.0954 75.6614 16.1591 75.6956 16.2166C75.7298 16.2741 75.775 16.3242 75.8288 16.3641C75.9379 16.4375 76.0606 16.4886 76.1897 16.5142C76.3389 16.5454 76.4906 16.5638 76.6429 16.5691C76.802 16.5764 76.9603 16.5957 77.1164 16.6268V16.8578L72.1333 16.8895ZM75.4015 2.90737C75.2858 3.02616 75.1469 3.11979 74.9934 3.18239C74.8399 3.24499 74.6751 3.2752 74.5094 3.27115C74.1782 3.26965 73.861 3.13804 73.626 2.90471C73.3911 2.67138 73.2573 2.35503 73.2535 2.02392C73.2489 1.86277 73.2782 1.70244 73.3394 1.55327C73.4005 1.4041 73.4922 1.26938 73.6086 1.1578C73.7257 1.04255 73.8647 0.951981 74.0175 0.891477C74.1702 0.830973 74.3336 0.801761 74.4978 0.805574C74.6623 0.800816 74.8261 0.828732 74.9797 0.887704C75.1334 0.946677 75.2738 1.03554 75.3928 1.14914C75.5112 1.26252 75.6045 1.39947 75.6666 1.55115C75.7288 1.70282 75.7585 1.86585 75.7537 2.0297C75.7593 2.1946 75.7309 2.35888 75.6703 2.51234C75.6097 2.66581 75.5182 2.80518 75.4015 2.92181" fill="white"/>
<path d="M86.7619 16.8981H86.6233V14.5884H86.6002C86.229 15.2902 85.6856 15.8863 85.021 16.3207C84.3286 16.7199 83.5392 16.9198 82.7402 16.8981C82.1702 16.9031 81.6051 16.7911 81.0801 16.569C80.5266 16.3388 80.0328 15.9853 79.6366 15.5354C79.1967 15.0261 78.8568 14.4384 78.6348 13.8031C78.3708 13.0392 78.2419 12.2352 78.2537 11.4271C78.2444 10.6562 78.3866 9.8911 78.6723 9.17513C78.9454 8.49279 79.3529 7.8723 79.8704 7.35049C80.4009 6.82067 81.0334 6.4042 81.7297 6.12637C82.4972 5.80958 83.3189 5.64485 84.1491 5.64133C84.5875 5.63692 85.0254 5.67365 85.457 5.75104C85.8378 5.82413 86.2139 5.92055 86.5829 6.03975C86.5829 5.8059 86.5541 5.49121 86.5454 5.08701C86.5367 4.68282 86.5454 4.27863 86.5281 3.86C86.5107 3.44137 86.5281 3.05739 86.5281 2.70516C86.5281 2.35294 86.5281 2.06134 86.5281 1.89389L84.6226 1.18367V1.0422L88.3036 0.0057373H88.4797L88.5433 15.0504C88.7662 15.1705 88.9978 15.2737 89.2362 15.3593C89.5768 15.495 89.8944 15.6249 90.186 15.749V15.9107L86.7619 16.8981ZM86.5627 8.18197C86.247 7.58193 85.7999 7.06087 85.2549 6.65759C84.8421 6.31406 84.3301 6.11171 83.794 6.08017C83.2503 6.06612 82.7148 6.21383 82.2552 6.50457C81.8236 6.79118 81.4639 7.17354 81.2043 7.62188C80.9149 8.11877 80.7101 8.66024 80.598 9.22421C80.4673 9.83427 80.4034 10.4567 80.4074 11.0806C80.4094 11.7022 80.4899 12.3211 80.6471 12.9226C80.7892 13.4824 81.0265 14.0137 81.3486 14.4931C81.65 14.937 82.044 15.3103 82.5035 15.5874C82.9852 15.8698 83.536 16.0128 84.0943 16.0002C84.7001 16.0084 85.2849 15.7782 85.7226 15.3593C86.1822 14.9169 86.4861 14.3375 86.5887 13.7079L86.5627 8.18197Z" fill="white"/>
<path d="M100.334 14.3921C100.114 14.8299 99.8212 15.2273 99.4681 15.5671C99.0783 15.9364 98.6282 16.2362 98.1372 16.4535C97.5917 16.6942 97.0011 16.8153 96.4049 16.8086C95.6656 16.8189 94.9325 16.6722 94.254 16.3784C93.6151 16.096 93.0478 15.6738 92.5939 15.1427C92.1238 14.592 91.7623 13.9572 91.5286 13.2719C91.277 12.5368 91.1492 11.7651 91.1504 10.9882C91.1548 9.65101 91.6197 8.35616 92.4669 7.32159C92.8923 6.80467 93.4189 6.38022 94.0144 6.07437C94.6387 5.75104 95.3323 5.58457 96.0353 5.58934C96.611 5.58316 97.1845 5.65898 97.7387 5.81453C98.2454 5.95372 98.7194 6.19219 99.1332 6.51609C99.5366 6.83925 99.8663 7.24478 100.1 7.70558C100.363 8.23231 100.515 8.80698 100.548 9.39452L93.0992 9.42628C93.0991 9.56998 93.0914 9.71358 93.0761 9.85646C93.0616 10.0181 93.0559 10.1856 93.0559 10.3559C93.0572 10.9886 93.1545 11.6175 93.3446 12.221C93.5196 12.7902 93.7975 13.3225 94.1645 13.7916C94.5235 14.2504 94.9853 14.6183 95.5128 14.8656C96.1018 15.1356 96.7445 15.2679 97.3923 15.2524C98.1113 15.2624 98.8163 15.0529 99.4132 14.6519C99.9511 14.316 100.358 13.8068 100.568 13.2084L100.753 13.2546C100.673 13.6577 100.533 14.0468 100.34 14.4094L100.334 14.3921ZM97.6521 6.61425C97.4436 6.40804 97.1946 6.24741 96.9207 6.14254C96.6469 6.03767 96.3542 5.99086 96.0613 6.00508C95.6443 6.00633 95.239 6.14312 94.9065 6.39484C94.5627 6.64584 94.2589 6.94761 94.0057 7.28983C93.7693 7.60896 93.5753 7.95734 93.4283 8.3263C93.3195 8.58433 93.2354 8.85211 93.1771 9.12602H94.1299H94.9527L95.7986 9.09715C96.0873 9.09715 96.4136 9.08272 96.7716 9.08272C97.0025 9.08272 97.2191 9.07405 97.4211 9.05673C97.6029 9.04274 97.7818 9.00288 97.9524 8.93836C98.0465 8.83172 98.1279 8.71448 98.1949 8.58902C98.2564 8.43409 98.283 8.2675 98.2728 8.10111C98.2759 7.82874 98.2246 7.5585 98.1219 7.30618C98.0193 7.05387 97.8675 6.82453 97.6752 6.63158" fill="white"/>
<path d="M108.182 16.7335V16.4795C108.518 16.4611 108.852 16.4089 109.178 16.3236C109.289 16.3058 109.389 16.2471 109.459 16.1589C109.529 16.0707 109.564 15.9595 109.556 15.8472L109.53 10.0066C109.555 9.25378 109.372 8.50856 109.002 7.85286C108.657 7.30623 108.08 7.03485 107.269 7.0387C106.822 7.02474 106.38 7.14001 105.996 7.37071C105.586 7.647 105.207 7.9664 104.865 8.32345L104.896 15.928C104.915 16.0549 104.972 16.1729 105.061 16.2658C105.144 16.3367 105.243 16.3871 105.35 16.4131C105.47 16.446 105.594 16.4654 105.719 16.4708C105.867 16.4787 106.015 16.4971 106.161 16.5257V16.7595L101.689 16.7768V16.543C102.003 16.5229 102.312 16.4517 102.604 16.3322C102.716 16.2958 102.814 16.2242 102.883 16.128C102.951 16.0319 102.987 15.9162 102.985 15.7981L102.95 7.82399C102.955 7.72628 102.943 7.62848 102.913 7.53528C102.868 7.44829 102.8 7.37535 102.717 7.32452L102.229 7.06179C102.041 6.96075 101.856 6.87413 101.671 6.79618V6.6576L104.703 5.54319H104.841V8.04629L104.888 8.06939C105.08 7.77316 105.291 7.48964 105.52 7.22059C105.776 6.91965 106.065 6.64761 106.38 6.40931C106.707 6.15819 107.064 5.94961 107.443 5.78859C107.823 5.62676 108.231 5.54235 108.644 5.5403C109.043 5.51775 109.441 5.59581 109.803 5.76732C110.164 5.93883 110.476 6.19829 110.711 6.52191C111.219 7.28119 111.473 8.18157 111.438 9.0943L111.467 15.9078C111.466 15.9646 111.48 16.0207 111.506 16.0711C111.532 16.1215 111.57 16.1646 111.617 16.1965C111.726 16.2754 111.848 16.3332 111.978 16.3669C112.127 16.4072 112.279 16.4371 112.432 16.4564C112.593 16.4795 112.746 16.4997 112.885 16.5141V16.722L108.182 16.7335Z" fill="white"/>
<path d="M120.705 7.12827L117.18 7.1456L117.206 13.2402C117.206 14.0275 117.379 14.5991 117.723 14.9552C117.895 15.1307 118.102 15.2682 118.33 15.3587C118.558 15.4492 118.803 15.4908 119.048 15.4806C119.431 15.4941 119.812 15.417 120.16 15.2554C120.467 15.0944 120.729 14.8592 120.922 14.5712L121.061 14.6405C120.956 14.8909 120.83 15.1315 120.682 15.3594C120.508 15.6272 120.289 15.8635 120.036 16.058C119.749 16.2746 119.428 16.4406 119.086 16.5488C118.669 16.6742 118.236 16.7345 117.801 16.7278C117.483 16.7302 117.167 16.6804 116.866 16.5806C116.577 16.4867 116.308 16.3387 116.075 16.1447C115.848 15.9622 115.653 15.7437 115.497 15.4979C115.36 15.2785 115.284 15.0263 115.278 14.7675C115.278 13.3143 115.278 11.9353 115.278 10.6303C115.278 9.32535 115.278 8.16185 115.278 7.13982H113.586V6.88576L116.912 3.70996H117.097V5.73092L121.384 5.71071L120.705 7.12827Z" fill="white"/>
<path d="M129.28 14.8222C129.052 15.2543 128.723 15.6255 128.322 15.9049C127.907 16.1933 127.44 16.4 126.948 16.5141C126.413 16.6426 125.864 16.7075 125.314 16.7075C124.668 16.7112 124.023 16.6522 123.388 16.5314C122.813 16.4177 122.252 16.2405 121.716 16.0031V12.9427H121.901C122.025 13.3123 122.19 13.702 122.366 14.112C122.549 14.513 122.775 14.8925 123.041 15.2438C123.299 15.591 123.622 15.8851 123.991 16.1099C124.392 16.3397 124.849 16.4536 125.311 16.439C125.632 16.454 125.954 16.4047 126.256 16.2942C126.558 16.1837 126.836 16.014 127.072 15.7952C127.511 15.3679 127.727 14.7154 127.721 13.832C127.728 13.6136 127.692 13.396 127.614 13.1919C127.536 12.9877 127.419 12.801 127.268 12.6425C126.93 12.3084 126.498 12.0866 126.03 12.0073C125.614 11.9323 125.213 11.8514 124.829 11.759C124.476 11.6812 124.128 11.5848 123.786 11.4703C123.214 11.2836 122.716 10.9208 122.363 10.4339C121.991 9.91568 121.797 9.29042 121.812 8.65253C121.801 8.2025 121.901 7.75672 122.1 7.35334C122.3 6.96855 122.575 6.62785 122.909 6.35152C123.259 6.06622 123.66 5.84797 124.09 5.7077C124.556 5.5571 125.043 5.4811 125.533 5.48251C126.109 5.47172 126.685 5.52791 127.248 5.64996C127.729 5.75842 128.203 5.89924 128.666 6.07147L128.954 8.95856L128.767 9.00764C128.55 8.54282 128.331 8.11553 128.114 7.72289C127.915 7.35595 127.671 7.01468 127.389 6.70663C127.139 6.42911 126.834 6.20521 126.494 6.04837C126.131 5.88858 125.736 5.81165 125.34 5.82318C125.075 5.82309 124.813 5.87103 124.566 5.96465C124.309 6.05491 124.073 6.19781 123.874 6.38423C123.675 6.57065 123.518 6.79648 123.411 7.04731C123.283 7.34419 123.221 7.6653 123.229 7.9885C123.209 8.21722 123.242 8.44758 123.328 8.66081C123.413 8.87403 123.547 9.06409 123.72 9.21551C124.089 9.48018 124.509 9.66682 124.953 9.76406C125.293 9.83912 125.663 9.91996 126.067 10.0037C126.471 10.0874 126.815 10.1654 127.112 10.2404C127.798 10.3929 128.421 10.7504 128.899 11.2653C129.392 11.8102 129.656 12.5232 129.638 13.2574C129.654 13.8003 129.533 14.3385 129.286 14.8222" fill="white"/>
</svg>
