<svg width="211" height="36" viewBox="0 0 211 36" fill="none" xmlns="http://www.w3.org/2000/svg">
<g clip-path="url(#clip0_5078_291)">
<path d="M56.559 14.073H54.3091V1.16248H56.5978L56.559 14.073Z" fill="white"/>
<path d="M58.7603 9.20552C58.7046 7.94607 59.0761 6.70381 59.8174 5.67073C60.1393 5.23491 60.5655 4.88228 61.059 4.64345C61.5525 4.40462 62.0984 4.28683 62.6492 4.30029C63.1261 4.28379 63.6007 4.37109 64.0385 4.55584C64.4764 4.74059 64.8665 5.01813 65.1804 5.36829V0.453613H67.3916V14.0729H65.3841L65.2774 13.0806C64.9579 13.4601 64.5527 13.7624 64.0934 13.9641C63.6341 14.1658 63.1332 14.2612 62.6299 14.2431C62.0866 14.2565 61.5481 14.1404 61.0613 13.9049C60.5746 13.6694 60.1542 13.3215 59.8368 12.8915C59.0663 11.8142 58.6874 10.5168 58.7603 9.20552ZM60.9715 9.38509C60.9234 10.1873 61.1263 10.9849 61.5534 11.6723C61.7298 11.9362 61.9737 12.1508 62.2611 12.295C62.5485 12.4391 62.8694 12.5079 63.1923 12.4946C63.5981 12.5009 63.9971 12.3927 64.3412 12.1831C64.6853 11.9735 64.9599 11.6714 65.1319 11.3132V7.22074C64.9607 6.86406 64.6854 6.56447 64.3404 6.3594C63.9954 6.15432 63.5961 6.05286 63.1923 6.06769C62.8674 6.0583 62.5452 6.12869 62.2554 6.27237C61.9656 6.41605 61.7175 6.62842 61.534 6.88995C61.1014 7.65064 60.906 8.51776 60.9715 9.38509Z" fill="white"/>
<path d="M74.0251 14.2431C73.3976 14.2678 72.7715 14.1665 72.1859 13.9454C71.6003 13.7243 71.0676 13.388 70.6211 12.9577C70.1757 12.5001 69.8301 11.9594 69.6051 11.3681C69.3801 10.7769 69.2803 10.1473 69.3118 9.51741V9.25277C69.2972 8.36741 69.493 7.49076 69.884 6.69147C70.2329 5.96775 70.7885 5.35739 71.4842 4.93353C72.1671 4.50881 72.9629 4.28864 73.7729 4.30029C74.3531 4.26846 74.9331 4.36404 75.4703 4.57997C76.0074 4.79591 76.4879 5.12668 76.8763 5.54786C77.6691 6.55773 78.0586 7.81389 77.9722 9.08265V9.95217H71.5424C71.568 10.6581 71.8577 11.3304 72.357 11.8424C72.5921 12.0705 72.8724 12.2493 73.181 12.368C73.4895 12.4866 73.8196 12.5426 74.1511 12.5324C74.6293 12.5391 75.1023 12.4346 75.5307 12.2275C75.9591 12.0204 76.3306 11.7166 76.6144 11.3415L77.7976 12.4473C77.4084 13.0228 76.8651 13.4836 76.2265 13.7799C75.5402 14.1006 74.786 14.2592 74.0251 14.2431ZM73.7632 6.02988C73.4899 6.01604 73.2168 6.06141 72.9636 6.16273C72.7103 6.26405 72.4833 6.41881 72.2988 6.61586C71.8881 7.10615 71.638 7.70546 71.5812 8.33599H75.7901V8.22258C75.7819 7.63777 75.5737 7.07234 75.1985 6.61586C75.0181 6.42155 74.7959 6.26832 74.5479 6.16705C74.2998 6.06578 74.0319 6.01895 73.7632 6.02988Z" fill="white"/>
<path d="M81.7447 4.47993L81.8029 5.58573C82.1506 5.16424 82.595 4.8283 83.1004 4.60502C83.6058 4.38174 84.1579 4.27738 84.7123 4.30036C86.7586 4.30036 87.806 5.44396 87.8351 7.73118V14.073H85.5949V7.85405C85.6341 7.37006 85.4891 6.88893 85.1875 6.50251C85.0099 6.34303 84.7998 6.22188 84.5708 6.14696C84.3419 6.07204 84.0993 6.04505 83.8589 6.06775C83.4547 6.06295 83.0574 6.17067 82.7139 6.37827C82.3703 6.58587 82.0946 6.88472 81.9193 7.23971V14.073H79.6597V4.47993H81.7447Z" fill="white"/>
<path d="M92.82 2.14539V4.47986H94.5559V6.07713H92.82V11.4266C92.7951 11.7086 92.8742 11.9901 93.043 12.2205C93.1516 12.3119 93.278 12.3808 93.4147 12.423C93.5514 12.4653 93.6955 12.48 93.8383 12.4662C94.1 12.4674 94.3608 12.4357 94.6141 12.3717V14.0446C94.1403 14.1727 93.6512 14.2395 93.1594 14.243C91.4623 14.243 90.6088 13.2979 90.6088 11.5116V6.07713H88.9893V4.47986H90.6088V2.14539H92.82Z" fill="white"/>
<path d="M96.253 1.98472C96.2481 1.83386 96.2738 1.68353 96.3287 1.54241C96.3836 1.40128 96.4667 1.27215 96.5731 1.16245C96.8321 0.949244 97.1602 0.832275 97.4992 0.832275C97.8383 0.832275 98.1664 0.949244 98.4254 1.16245C98.5349 1.27043 98.6206 1.39905 98.6773 1.54044C98.734 1.68182 98.7605 1.833 98.7551 1.98472C98.7597 2.13493 98.7329 2.28447 98.6762 2.42422C98.6195 2.56397 98.5342 2.69099 98.4254 2.79753C98.164 3.00557 97.8368 3.11921 97.4992 3.11921C97.1617 3.11921 96.8345 3.00557 96.5731 2.79753C96.4674 2.68927 96.3848 2.56173 96.3298 2.42224C96.2749 2.28275 96.2488 2.13407 96.253 1.98472ZM98.6 14.0729H96.3888V4.47986H98.6V14.0729Z" fill="white"/>
<path d="M103.769 2.14539V4.47986H105.505V6.07713H103.769V11.4266C103.739 11.709 103.819 11.992 103.992 12.2205C104.099 12.3133 104.226 12.3832 104.363 12.4255C104.5 12.4678 104.644 12.4817 104.787 12.4662C105.045 12.4668 105.303 12.4351 105.553 12.3717V14.0446C105.079 14.1734 104.59 14.2401 104.098 14.243C102.401 14.243 101.558 13.2979 101.558 11.5116V6.07713H99.938V4.47986H101.558V2.14539H103.769Z" fill="white"/>
<path d="M110.645 10.9824L112.642 4.47986H114.999L111.12 15.519C110.519 17.1351 109.5 17.948 108.065 17.948C107.704 17.9412 107.345 17.8872 106.998 17.7873V16.0672H107.415C107.856 16.0986 108.297 15.9963 108.676 15.7742C109 15.5156 109.234 15.1656 109.345 14.7723L109.665 13.9501L106.174 4.47986H108.56L110.645 10.9824Z" fill="white"/>
<path d="M128.867 8.30766H123.427V12.2867H129.779V14.0824H121.119V1.16248H129.721V2.96767H123.427V6.53081H128.867V8.30766Z" fill="white"/>
<path d="M134.977 7.63659L136.849 4.47986H139.312L136.296 9.20551L139.409 14.0729H136.965L135.026 10.7933L133.086 14.0729H130.632L133.745 9.20551L130.739 4.47986H133.183L134.977 7.63659Z" fill="white"/>
<path d="M149.427 9.3663C149.491 10.6311 149.122 11.8808 148.38 12.92C148.061 13.3446 147.641 13.687 147.156 13.9176C146.671 14.1482 146.136 14.2599 145.596 14.2432C145.117 14.2647 144.639 14.1855 144.194 14.0111C143.749 13.8366 143.347 13.5708 143.017 13.2319V17.778H140.806V4.54614H142.842L142.939 5.49127C143.259 5.11292 143.665 4.81194 144.124 4.61189C144.583 4.41184 145.084 4.31817 145.587 4.33821C146.122 4.31579 146.656 4.41914 147.142 4.63954C147.628 4.85994 148.052 5.19095 148.38 5.60468C149.115 6.67423 149.473 7.94846 149.398 9.23398L149.427 9.3663ZM147.226 9.18672C147.27 8.38783 147.067 7.59437 146.644 6.90896C146.461 6.64118 146.211 6.42337 145.917 6.27617C145.623 6.12896 145.296 6.05724 144.966 6.0678C144.569 6.04468 144.174 6.13528 143.829 6.32842C143.485 6.52156 143.206 6.80879 143.027 7.15469V11.4078C143.202 11.7582 143.48 12.0506 143.825 12.2488C144.169 12.4471 144.566 12.5424 144.966 12.523C145.289 12.5308 145.61 12.4597 145.898 12.3161C146.186 12.1724 146.432 11.9609 146.615 11.7008C147.071 10.9409 147.284 10.0654 147.226 9.18672Z" fill="white"/>
<path d="M155.634 14.2431C155.011 14.2639 154.391 14.1607 153.811 13.9397C153.23 13.7186 152.702 13.3845 152.259 12.9577C151.814 12.5001 151.468 11.9594 151.243 11.3681C151.018 10.7769 150.919 10.1473 150.95 9.51741V9.25277C150.935 8.36741 151.131 7.49076 151.522 6.69147C151.871 5.96775 152.427 5.35739 153.122 4.93353C153.805 4.50881 154.601 4.28864 155.411 4.30029C155.991 4.26846 156.571 4.36404 157.108 4.57997C157.646 4.79591 158.126 5.12668 158.514 5.54786C159.307 6.55773 159.697 7.81388 159.61 9.08265V9.95217H153.181C153.206 10.6581 153.496 11.3304 153.995 11.8424C154.23 12.0705 154.511 12.2493 154.819 12.368C155.128 12.4866 155.458 12.5426 155.789 12.5324C156.265 12.5384 156.735 12.4335 157.16 12.2263C157.585 12.0191 157.953 11.7157 158.233 11.3415L159.426 12.4473C159.037 13.0228 158.494 13.4836 157.855 13.7799C157.163 14.1035 156.402 14.2622 155.634 14.2431ZM155.372 6.02988C155.099 6.01604 154.826 6.06141 154.573 6.16273C154.319 6.26405 154.092 6.41881 153.908 6.61586C153.504 7.12113 153.267 7.73426 153.229 8.3738H157.438V8.22258C157.419 7.63325 157.197 7.06733 156.808 6.61586C156.627 6.42155 156.405 6.26832 156.157 6.16705C155.909 6.06578 155.641 6.01895 155.372 6.02988Z" fill="white"/>
<path d="M166.457 6.44584C166.159 6.39682 165.858 6.37153 165.555 6.37023C165.129 6.33117 164.7 6.42553 164.332 6.63965C163.964 6.85377 163.676 7.17651 163.509 7.5611V14.1203H161.298V4.47997H163.402L163.461 5.54797C163.68 5.16349 164.003 4.84434 164.394 4.62461C164.785 4.40488 165.23 4.29282 165.681 4.3004C165.946 4.29088 166.209 4.33264 166.457 4.42327V6.44584Z" fill="white"/>
<path d="M167.854 1.98472C167.849 1.83386 167.874 1.68353 167.929 1.54241C167.984 1.40128 168.067 1.27215 168.174 1.16245C168.433 0.949244 168.761 0.832275 169.1 0.832275C169.439 0.832275 169.767 0.949244 170.026 1.16245C170.135 1.27043 170.221 1.39905 170.278 1.54044C170.335 1.68182 170.361 1.833 170.356 1.98472C170.36 2.13493 170.333 2.28447 170.277 2.42422C170.22 2.56397 170.135 2.69099 170.026 2.79753C169.765 3.00557 169.437 3.11921 169.1 3.11921C168.762 3.11921 168.435 3.00557 168.174 2.79753C168.068 2.68927 167.985 2.56173 167.93 2.42224C167.876 2.28275 167.849 2.13407 167.854 1.98472ZM170.201 14.0729H167.989V4.47986H170.201V14.0729Z" fill="white"/>
<path d="M176.941 14.2431C176.313 14.2678 175.687 14.1665 175.101 13.9454C174.516 13.7243 173.983 13.388 173.537 12.9577C173.091 12.5001 172.746 11.9594 172.521 11.3681C172.296 10.7769 172.196 10.1473 172.227 9.51741V9.25277C172.213 8.36741 172.409 7.49076 172.8 6.69147C173.148 5.97017 173.699 5.36041 174.39 4.93353C175.077 4.51007 175.876 4.2901 176.688 4.30029C177.269 4.26846 177.849 4.36404 178.386 4.57997C178.923 4.79591 179.403 5.12668 179.792 5.54786C180.58 6.56009 180.969 7.81448 180.888 9.08265V9.95217H174.458C174.483 10.6581 174.773 11.3304 175.273 11.8424C175.508 12.0705 175.788 12.2493 176.096 12.368C176.405 12.4866 176.735 12.5426 177.067 12.5324C177.547 12.543 178.023 12.4403 178.453 12.2329C178.884 12.0255 179.257 11.7197 179.54 11.3415L180.733 12.4473C180.343 13.0228 179.8 13.4836 179.161 13.7799C178.469 14.1014 177.708 14.2601 176.941 14.2431ZM176.679 6.02988C176.401 6.02065 176.124 6.07184 175.87 6.17974C175.615 6.28764 175.387 6.44953 175.205 6.65366C174.797 7.14509 174.551 7.7443 174.497 8.3738H178.706V8.22258C178.697 7.63777 178.489 7.07234 178.114 6.61586C177.933 6.42257 177.71 6.27004 177.463 6.16885C177.215 6.06766 176.947 6.02024 176.679 6.02988Z" fill="white"/>
<path d="M184.65 4.47993L184.718 5.58573C185.066 5.16424 185.51 4.8283 186.016 4.60502C186.521 4.38174 187.073 4.27738 187.628 4.30036C189.671 4.30036 190.712 5.44396 190.75 7.73118V14.073H188.539V7.85405C188.577 7.37169 188.436 6.89219 188.142 6.50251C187.964 6.34303 187.754 6.22188 187.525 6.14696C187.296 6.07204 187.053 6.04505 186.813 6.06775C186.401 6.05377 185.993 6.15716 185.64 6.36529C185.287 6.57342 185.004 6.87727 184.825 7.23971V14.073H182.614V4.47993H184.65Z" fill="white"/>
<path d="M197.006 12.523C197.508 12.5412 197.999 12.3761 198.383 12.0599C198.558 11.9164 198.7 11.7388 198.8 11.5386C198.9 11.3384 198.956 11.12 198.965 10.8974H201.05C201.023 11.4961 200.825 12.0756 200.478 12.5703C200.106 13.0925 199.606 13.515 199.023 13.799C198.404 14.0947 197.724 14.2467 197.035 14.2432C196.425 14.2701 195.816 14.1684 195.251 13.9449C194.685 13.7215 194.175 13.3815 193.757 12.9483C192.904 11.939 192.474 10.6526 192.554 9.34739V9.12056C192.489 7.84598 192.918 6.59403 193.757 5.61413C194.168 5.17366 194.675 4.82743 195.24 4.60029C195.805 4.37315 196.415 4.27074 197.025 4.3004C198.085 4.23199 199.129 4.57134 199.935 5.24553C200.303 5.58272 200.596 5.98984 200.796 6.44175C200.996 6.89367 201.099 7.38077 201.098 7.87299H199.013C199.009 7.36446 198.804 6.87697 198.441 6.512C198.257 6.33908 198.04 6.2033 197.802 6.11247C197.564 6.02164 197.31 5.97755 197.054 5.98273C196.737 5.96753 196.421 6.02853 196.133 6.16037C195.846 6.29221 195.596 6.49085 195.406 6.73884C194.965 7.42447 194.758 8.22831 194.814 9.0355V9.45136C194.756 10.2652 194.955 11.0769 195.386 11.7764C195.575 12.0186 195.82 12.2129 196.102 12.3429C196.384 12.4728 196.694 12.5346 197.006 12.523Z" fill="white"/>
<path d="M207.053 14.2431C206.427 14.2682 205.802 14.1671 205.218 13.9459C204.634 13.7247 204.103 13.3882 203.659 12.9577C203.213 12.5001 202.868 11.9594 202.643 11.3681C202.418 10.7769 202.318 10.1473 202.349 9.51741V9.25277C202.335 8.36741 202.531 7.49076 202.922 6.69147C203.27 5.97017 203.821 5.36041 204.512 4.93353C205.199 4.51007 205.998 4.2901 206.811 4.30029C207.391 4.26846 207.971 4.36404 208.508 4.57997C209.045 4.79591 209.526 5.12668 209.914 5.54786C210.702 6.56009 211.091 7.81448 211.01 9.08265V9.95217H204.58C204.606 10.6581 204.895 11.3304 205.395 11.8424C205.63 12.0705 205.91 12.2493 206.219 12.368C206.527 12.4866 206.857 12.5426 207.189 12.5324C207.667 12.5399 208.14 12.4357 208.569 12.2285C208.997 12.0214 209.369 11.7172 209.652 11.3415L210.845 12.4473C210.453 13.0241 209.906 13.485 209.264 13.7799C208.575 14.102 207.817 14.2607 207.053 14.2431ZM206.791 6.02988C206.513 6.02065 206.237 6.07184 205.982 6.17974C205.727 6.28764 205.5 6.44953 205.317 6.65366C204.917 7.14735 204.677 7.74636 204.628 8.3738H208.837V8.22258C208.824 7.63552 208.609 7.06985 208.226 6.61586C208.045 6.42257 207.823 6.27004 207.575 6.16885C207.327 6.06766 207.06 6.02024 206.791 6.02988Z" fill="white"/>
<path d="M54.1343 32.229V19.3185H58.0135C59.1028 19.2978 60.1778 19.5621 61.1266 20.0841C62.0317 20.5862 62.7666 21.3352 63.2407 22.239C63.7519 23.2358 64.0081 24.3382 63.9875 25.4524V26.1046C64.016 27.2113 63.7663 28.308 63.2601 29.2991C62.781 30.2199 62.027 30.9777 61.0975 31.4729C60.1212 31.9866 59.0258 32.247 57.9165 32.229H54.1343ZM56.4327 21.1237V30.4332H57.9359C58.4575 30.4604 58.9787 30.3726 59.4606 30.1762C59.9425 29.9798 60.3727 29.68 60.7192 29.2991C61.4175 28.3891 61.7612 27.267 61.689 26.1329V25.4146C61.7571 24.2693 61.4142 23.1366 60.7192 22.2106C60.3844 21.832 59.964 21.5343 59.4912 21.3408C59.0183 21.1473 58.5059 21.0633 57.9941 21.0954L56.4327 21.1237Z" fill="white"/>
<path d="M70.427 32.3991C69.7993 32.4256 69.1727 32.325 68.5868 32.1038C68.001 31.8826 67.4685 31.5454 67.023 31.1137C66.5789 30.6573 66.234 30.1181 66.009 29.5285C65.784 28.939 65.6836 28.3112 65.7137 27.6829V27.4088C65.6966 26.5232 65.8925 25.646 66.2859 24.8475C66.6366 24.1249 67.1918 23.515 67.8861 23.0895C68.5732 22.6661 69.3716 22.4461 70.1845 22.4563C70.7647 22.4245 71.3447 22.52 71.8819 22.736C72.419 22.9519 72.8995 23.2827 73.2879 23.7039C74.0774 24.719 74.4664 25.9769 74.3838 27.2481V28.1082H67.9443C67.9644 28.8152 68.2549 29.4894 68.7589 29.9984C68.994 30.2265 69.2743 30.4053 69.5829 30.524C69.8914 30.6426 70.2215 30.6986 70.553 30.6884C71.0337 30.6956 71.5091 30.5903 71.9394 30.3815C72.3697 30.1726 72.7423 29.8662 73.0261 29.4881L74.2189 30.5939C73.8248 31.1687 73.2786 31.6292 72.6381 31.9265C71.9497 32.2518 71.192 32.4138 70.427 32.3991ZM70.1651 24.1859C69.8873 24.1767 69.6109 24.2278 69.3559 24.3357C69.1009 24.4436 68.8738 24.6055 68.691 24.8097C68.2838 25.3011 68.0371 25.9003 67.9831 26.5298H72.192V26.3786C72.1896 25.7842 71.9811 25.208 71.6004 24.7435C71.4177 24.5538 71.1944 24.4055 70.9464 24.3092C70.6984 24.2128 70.4317 24.1707 70.1651 24.1859Z" fill="white"/>
<path d="M81.609 29.6203C81.6194 29.4434 81.5786 29.2671 81.4911 29.1117C81.4036 28.9563 81.2731 28.8279 81.1144 28.7414C80.6182 28.4798 80.0806 28.3009 79.5239 28.2121C78.8559 28.0921 78.2048 27.8954 77.5843 27.6261C77.1056 27.4577 76.6907 27.1515 76.3945 26.7481C76.0984 26.3447 75.935 25.8632 75.9259 25.3673C75.924 24.9624 76.0205 24.5629 76.2076 24.2015C76.3948 23.84 76.6671 23.527 77.0024 23.288C77.784 22.7104 78.7476 22.4163 79.7276 22.4563C80.7503 22.4096 81.7581 22.7102 82.5788 23.3069C82.9336 23.5614 83.2208 23.895 83.4165 24.2797C83.6122 24.6644 83.7107 25.0891 83.7037 25.5185H81.4635C81.4678 25.3227 81.4285 25.1283 81.3481 24.9488C81.2677 24.7693 81.1483 24.6089 80.998 24.4788C80.6446 24.1946 80.1949 24.0496 79.7373 24.0724C79.3176 24.0518 78.9024 24.1646 78.5541 24.3938C78.4077 24.4911 78.2885 24.6224 78.2072 24.7759C78.1259 24.9293 78.0852 25.1001 78.0886 25.2727C78.0899 25.426 78.1295 25.5766 78.2038 25.7116C78.2781 25.8466 78.385 25.962 78.5153 26.0478C79.0622 26.317 79.6473 26.505 80.2513 26.6054C80.9575 26.7359 81.6425 26.9584 82.2878 27.267C82.7333 27.4845 83.114 27.81 83.3934 28.2121C83.6399 28.6074 83.7645 29.0634 83.7522 29.5258C83.7589 29.9372 83.6616 30.3438 83.4688 30.7097C83.2759 31.0756 82.9936 31.3897 82.6467 31.624C81.7931 32.1939 80.7703 32.473 79.7373 32.4179C78.9964 32.4308 78.2615 32.2857 77.5843 31.9926C76.9941 31.7422 76.4847 31.3404 76.1102 30.8301C75.7846 30.3489 75.6219 29.7804 75.6447 29.2045H77.7977C77.7987 29.4308 77.8525 29.6538 77.955 29.8568C78.0575 30.0599 78.206 30.2375 78.3892 30.3765C78.8012 30.631 79.2754 30.7739 79.7629 30.7906C80.2504 30.8072 80.7336 30.6969 81.1629 30.471C81.3028 30.3754 81.4166 30.2479 81.4943 30.0997C81.5721 29.9514 81.6114 29.7868 81.609 29.6203Z" fill="white"/>
<path d="M85.7111 20.1407C85.7062 19.9899 85.7319 19.8396 85.7868 19.6984C85.8417 19.5573 85.9248 19.4282 86.0312 19.3185C86.1585 19.198 86.3112 19.106 86.4787 19.0489C86.6461 18.9918 86.8244 18.9709 87.001 18.9877C87.1774 18.9734 87.3549 18.9954 87.522 19.0524C87.6891 19.1094 87.842 19.2001 87.9708 19.3185C88.0785 19.4277 88.163 19.5565 88.2196 19.6976C88.2762 19.8387 88.3037 19.9893 88.3005 20.1407C88.304 20.2908 88.2766 20.44 88.22 20.5796C88.1633 20.7192 88.0786 20.8464 87.9708 20.9536C87.8412 21.0703 87.6879 21.1592 87.5209 21.2145C87.3538 21.2699 87.1767 21.2905 87.001 21.2749C86.8251 21.2929 86.6473 21.2735 86.4799 21.218C86.3124 21.1626 86.1593 21.0723 86.0312 20.9536C85.9246 20.8459 85.8414 20.7185 85.7864 20.5788C85.7314 20.4392 85.7058 20.2902 85.7111 20.1407ZM88.0581 32.229H85.8469V22.6831H88.0581V32.229Z" fill="white"/>
<path d="M90.0751 27.4087C89.9981 26.1161 90.3818 24.8373 91.1613 23.7889C91.5001 23.3546 91.9416 23.0066 92.4482 22.7746C92.9548 22.5426 93.5115 22.4333 94.0707 22.4562C94.5656 22.4451 95.0565 22.545 95.5055 22.7482C95.9545 22.9514 96.3495 23.2525 96.6601 23.6282L96.7571 22.6831H98.7549V31.9831C98.7822 32.5341 98.6892 33.0844 98.4819 33.5976C98.2745 34.1109 97.9577 34.5754 97.5523 34.9603C96.6517 35.7204 95.4835 36.1101 94.2938 36.0472C93.5657 36.0471 92.8457 35.899 92.1796 35.6124C91.5608 35.3698 91.0187 34.972 90.6085 34.4594L91.6559 33.0795C91.9535 33.451 92.3349 33.7508 92.7704 33.9557C93.206 34.1606 93.6841 34.265 94.1677 34.2609C94.8014 34.2966 95.4243 34.0898 95.9037 33.6844C96.1283 33.4595 96.3015 33.1908 96.4118 32.8959C96.5222 32.601 96.5671 32.2867 96.5437 31.9737V31.331C96.2219 31.6742 95.8266 31.9444 95.3859 32.1224C94.9452 32.3004 94.4697 32.3819 93.9931 32.3612C93.4497 32.3786 92.9098 32.2704 92.4176 32.0453C91.9254 31.8202 91.4949 31.4848 91.1613 31.0664C90.3888 30.0003 90.0063 28.7121 90.0751 27.4087ZM92.2766 27.5883C92.232 28.3897 92.4419 29.1851 92.8779 29.866C93.0621 30.1321 93.3128 30.348 93.6063 30.4935C93.8998 30.6391 94.2265 30.7093 94.5556 30.6978C94.9533 30.7056 95.3453 30.6054 95.6878 30.4084C96.0304 30.2114 96.3099 29.9255 96.4952 29.5825V25.3105C96.3104 24.9692 96.0301 24.6859 95.6868 24.4936C95.3435 24.3012 94.9513 24.2076 94.5556 24.2236C94.2224 24.2098 93.8911 24.2799 93.5939 24.4273C93.2966 24.5746 93.0433 24.7942 92.8585 25.0648C92.4164 25.8155 92.2139 26.6776 92.2766 27.541V27.5883Z" fill="white"/>
<path d="M103.071 22.6831L103.139 23.7889C103.485 23.3662 103.929 23.0295 104.435 22.8061C104.941 22.5827 105.493 22.479 106.048 22.5035C108.104 22.5035 109.142 23.6471 109.18 25.9343V32.2289H106.969V26.01C107.009 25.526 106.864 25.0448 106.562 24.6584C106.387 24.4982 106.179 24.3764 105.951 24.3014C105.723 24.2264 105.482 24.1999 105.243 24.2237C104.839 24.2189 104.442 24.3266 104.098 24.5342C103.754 24.7418 103.479 25.0406 103.303 25.3956V32.2289H101.092V22.6831H103.071Z" fill="white"/>
<path d="M0 0H1.43531V2.88265H0V0ZM0 34.5445V4.87687H1.43531V34.5445H0Z" fill="white"/>
<path d="M28.3474 34.9036C26.2636 34.9081 24.2031 34.4762 22.3055 33.6371C20.4276 32.8329 18.728 31.6805 17.3013 30.2441C15.8621 28.7594 14.7265 27.0208 13.9555 25.1215C12.326 21.1113 12.326 16.6466 13.9555 12.6364C14.7226 10.721 15.8582 8.96627 17.3013 7.46649C18.7266 6.01895 20.4259 4.85392 22.3055 4.03567C24.2182 3.20084 26.2904 2.76929 28.3862 2.76929C30.4819 2.76929 32.5541 3.20084 34.4668 4.03567C36.323 4.85981 37.999 6.02463 39.4031 7.46649C40.841 8.95225 41.9764 10.6906 42.7489 12.5891C43.5678 14.5747 43.9828 16.6965 43.9709 18.8364H14.1688C14.1558 20.7796 14.5347 22.7064 15.2841 24.5072C15.9942 26.2293 17.0195 27.8113 18.3099 29.1761C19.5817 30.5071 21.111 31.5799 22.8098 32.3329C24.5681 33.108 26.4757 33.5089 28.4056 33.5089C30.3354 33.5089 32.243 33.108 34.0013 32.3329C35.7666 31.5279 37.3467 30.3834 38.6467 28.9682L39.7231 29.9133C38.3034 31.5175 36.5474 32.8066 34.5735 33.6939C32.6131 34.5336 30.4883 34.9465 28.3474 34.9036ZM28.3474 4.17744C26.5565 4.17293 24.7827 4.51674 23.1298 5.18873C21.5079 5.8578 20.0304 6.81984 18.7754 8.02412C17.5065 9.2446 16.4603 10.6669 15.6817 12.2299C14.8595 13.8648 14.372 15.64 14.2464 17.4565H42.458C42.3283 15.6407 41.841 13.8662 41.0227 12.2299C40.2373 10.6685 39.1883 9.24671 37.9193 8.02412C36.6676 6.81589 35.1893 5.8533 33.5649 5.18873C31.9123 4.516 30.1383 4.17216 28.3474 4.17744Z" fill="white"/>
<path d="M22.5965 17.4282H3.45264V18.827H22.5965V17.4282Z" fill="white"/>
</g>
<defs>
<clipPath id="clip0_5078_291">
<rect width="211" height="36" fill="white"/>
</clipPath>
</defs>
</svg>
