<svg width="96" height="96" viewBox="0 0 96 96" fill="none" xmlns="http://www.w3.org/2000/svg">
<circle cx="48" cy="48" r="48" fill="url(#paint0_radial_5072_163)"/>
<path d="M48.3689 61.4C45.2222 61.4 42.6755 60.8533 40.7289 59.76C38.8089 58.64 37.4622 56.9467 36.6889 54.68L45.0889 51.28C45.0622 52.1867 45.1689 52.88 45.4089 53.36C45.6489 53.84 45.9689 54.16 46.3689 54.32C46.7955 54.48 47.2222 54.56 47.6489 54.56C48.1022 54.56 48.5022 54.4933 48.8489 54.36C49.1955 54.2 49.4622 53.96 49.6489 53.64C49.8622 53.32 49.9689 52.9333 49.9689 52.48C49.9689 51.9733 49.8489 51.5867 49.6089 51.32C49.3955 51.0267 49.1155 50.8267 48.7689 50.72C48.4222 50.5867 48.0489 50.52 47.6489 50.52C47.2489 50.52 46.9155 50.5333 46.6489 50.56C46.3822 50.5867 46.0622 50.6267 45.6889 50.68V45.32C45.9022 45.3467 46.1155 45.3733 46.3289 45.4C46.5422 45.4 46.8222 45.4 47.1689 45.4C47.9422 45.4 48.5155 45.2267 48.8889 44.88C49.2622 44.5333 49.4489 43.96 49.4489 43.16C49.4489 42.4933 49.2755 41.9733 48.9289 41.6C48.5822 41.2267 48.1022 41.04 47.4889 41.04C46.8755 41.04 46.3155 41.2667 45.8089 41.72C45.3022 42.1467 45.0622 43.0133 45.0889 44.32L37.0489 41.84C37.2355 40.1333 37.8355 38.72 38.8489 37.6C39.8889 36.48 41.2089 35.64 42.8089 35.08C44.4355 34.4933 46.2222 34.2 48.1689 34.2C50.3289 34.2 52.1689 34.4933 53.6889 35.08C55.2089 35.64 56.3689 36.48 57.1689 37.6C57.9689 38.72 58.3689 40.0933 58.3689 41.72C58.3689 42.9733 58.1555 44 57.7289 44.8C57.3022 45.5733 56.7822 46.1733 56.1689 46.6C55.5822 47.0267 55.0222 47.32 54.4889 47.48C53.9555 47.64 53.5955 47.72 53.4089 47.72V47.88C53.5955 47.88 53.9689 47.9333 54.5289 48.04C55.1155 48.12 55.7422 48.3333 56.4089 48.68C57.0755 49 57.6489 49.5333 58.1289 50.28C58.6089 51.0267 58.8489 52.04 58.8489 53.32C58.8489 55.0267 58.3689 56.4933 57.4089 57.72C56.4755 58.92 55.2089 59.84 53.6089 60.48C52.0355 61.0933 50.2889 61.4 48.3689 61.4Z" fill="white"/>
<defs>
<radialGradient id="paint0_radial_5072_163" cx="0" cy="0" r="1" gradientUnits="userSpaceOnUse" gradientTransform="translate(48 48) rotate(90) scale(48)">
<stop stop-color="#EB8C54"/>
<stop offset="1" stop-color="#EC6350"/>
</radialGradient>
</defs>
</svg>
