<svg width="96" height="96" viewBox="0 0 96 96" fill="none" xmlns="http://www.w3.org/2000/svg">
<circle cx="48" cy="48" r="48" fill="url(#paint0_radial_5072_154)"/>
<path d="M37.9312 61V55.4C39.9312 54.3333 41.6645 53.2667 43.1312 52.2C44.6245 51.1333 45.8512 50.0933 46.8112 49.08C47.7978 48.04 48.5312 47.0667 49.0112 46.16C49.4912 45.2267 49.7312 44.3733 49.7312 43.6C49.7312 42.96 49.5712 42.4 49.2512 41.92C48.9312 41.44 48.3712 41.2 47.5712 41.2C46.6645 41.2 45.9978 41.5733 45.5712 42.32C45.1445 43.0667 44.9578 44.2533 45.0112 45.88L37.0512 43.96C36.9978 41.72 37.4645 39.88 38.4512 38.44C39.4378 37 40.7845 35.9333 42.4912 35.24C44.2245 34.5467 46.1312 34.2 48.2112 34.2C50.2112 34.2 51.8912 34.48 53.2512 35.04C54.6378 35.5733 55.7445 36.28 56.5712 37.16C57.3978 38.0133 57.9845 38.9467 58.3312 39.96C58.7045 40.9467 58.8912 41.8933 58.8912 42.8C58.8912 44.56 58.4245 46.1467 57.4912 47.56C56.5845 48.9733 55.3578 50.24 53.8112 51.36C52.2645 52.48 50.5445 53.4933 48.6512 54.4V54.48C49.2112 54.4267 49.8245 54.3867 50.4912 54.36C51.1845 54.3067 51.9045 54.28 52.6512 54.28C53.4245 54.2533 54.1845 54.24 54.9312 54.24H59.0512V61H37.9312Z" fill="white"/>
<defs>
<radialGradient id="paint0_radial_5072_154" cx="0" cy="0" r="1" gradientUnits="userSpaceOnUse" gradientTransform="translate(48 48) rotate(90) scale(48)">
<stop stop-color="#EB8C54"/>
<stop offset="1" stop-color="#EC6350"/>
</radialGradient>
</defs>
</svg>
